<svg width="44" height="44" viewBox="0 0 44 44" fill="none" xmlns="http://www.w3.org/2000/svg">
<rect width="44" height="44" rx="22" fill="#EA4B71"/>
<path fill-rule="evenodd" clip-rule="evenodd" d="M40 16.7392C40 18.7274 38.3469 20.3392 36.3077 20.3392C34.5873 20.3392 33.1416 19.1919 32.7317 17.6392H27.5767C26.6742 17.6392 25.904 18.2753 25.7556 19.1432L25.6039 20.031C25.4598 20.8739 25.0225 21.6075 24.4041 22.1392C25.0225 22.6708 25.4598 23.4044 25.6039 24.2473L25.7556 25.1351C25.904 26.003 26.6742 26.6392 27.5767 26.6392H29.0394C29.4493 25.0864 30.8949 23.9392 32.6154 23.9392C34.6546 23.9392 36.3077 25.5509 36.3077 27.5392C36.3077 29.5274 34.6546 31.1392 32.6154 31.1392C30.8949 31.1392 29.4493 29.9919 29.0394 28.4392H27.5767C25.7717 28.4392 24.2313 27.1669 23.9346 25.431L23.7828 24.5432C23.6345 23.6753 22.8643 23.0392 21.9618 23.0392H20.4559C19.995 24.5152 18.5877 25.5892 16.9231 25.5892C15.2585 25.5892 13.8512 24.5152 13.3903 23.0392H11.2251C10.7642 24.5152 9.35688 25.5892 7.69231 25.5892C5.65311 25.5892 4 23.9774 4 21.9892C4 20.0009 5.65311 18.3892 7.69231 18.3892C9.46774 18.3892 10.9505 19.6109 11.3044 21.2392H13.311C13.6649 19.6109 15.1477 18.3892 16.9231 18.3892C18.6985 18.3892 20.1813 19.6109 20.5352 21.2392H21.9618C22.8643 21.2392 23.6345 20.603 23.7828 19.7351L23.9346 18.8473C24.2313 17.1114 25.7717 15.8392 27.5767 15.8392H32.7317C33.1416 14.2865 34.5873 13.1392 36.3077 13.1392C38.3469 13.1392 40 14.7509 40 16.7392ZM38.1538 16.7392C38.1538 17.7333 37.3273 18.5392 36.3077 18.5392C35.2881 18.5392 34.4615 17.7333 34.4615 16.7392C34.4615 15.745 35.2881 14.9392 36.3077 14.9392C37.3273 14.9392 38.1538 15.745 38.1538 16.7392ZM7.69231 23.7892C8.71193 23.7892 9.53845 22.9833 9.53845 21.9892C9.53845 20.995 8.71193 20.1892 7.69231 20.1892C6.6727 20.1892 5.84615 20.995 5.84615 21.9892C5.84615 22.9833 6.6727 23.7892 7.69231 23.7892ZM16.9231 23.7892C17.9427 23.7892 18.7692 22.9833 18.7692 21.9892C18.7692 20.995 17.9427 20.1892 16.9231 20.1892C15.9035 20.1892 15.0769 20.995 15.0769 21.9892C15.0769 22.9833 15.9035 23.7892 16.9231 23.7892ZM32.6154 29.3392C33.635 29.3392 34.4615 28.5333 34.4615 27.5392C34.4615 26.5451 33.635 25.7392 32.6154 25.7392C31.5958 25.7392 30.7692 26.5451 30.7692 27.5392C30.7692 28.5333 31.5958 29.3392 32.6154 29.3392Z" fill="white"/>
</svg>
